M48
; DRILL file {KiCad 8.0.0} date 2024-03-13T16:12:58+0700
; FORMAT={-:-/ absolute / inch / decimal}
; #@! TF.CreationDate,2024-03-13T16:12:58+07:00
; #@! TF.GenerationSoftware,Kicad,Pcbnew,8.0.0
; #@! TF.FileFunction,Plated,1,2,PTH
FMAT,2
INCH
; #@! TA.AperFunction,Plated,PTH,ViaDrill
T1C0.0157
; #@! TA.AperFunction,Plated,PTH,ComponentDrill
T2C0.0394
; #@! TA.AperFunction,Plated,PTH,ComponentDrill
T3C0.0591
; #@! TA.AperFunction,Plated,PTH,ComponentDrill
T4C0.1201
%
G90
G05
T1
X4.13Y-3.11
X4.13Y-3.235
X4.13Y-3.385
X4.145Y-2.63
X4.145Y-2.69
X4.145Y-2.745
X4.145Y-2.815
X4.21Y-4.4
X4.265Y-4.259
X4.295Y-3.175
X4.3Y-4.9
X4.315Y-2.67
X4.3296Y-4.5
X4.375Y-3.175
X4.395Y-2.805
X4.395Y-2.96
X4.505Y-2.67
X4.525Y-2.735
X4.525Y-2.785
X4.55Y-3.58
X4.55Y-4.525
X4.58Y-3.095
X4.58Y-3.13
X4.585Y-3.535
X4.615Y-3.58
X4.62Y-4.92
X4.63Y-2.845
X4.63Y-2.885
X4.63Y-2.925
X4.63Y-2.965
X4.81Y-4.29
X4.82Y-3.29
X4.82Y-3.32
X4.8622Y-2.82
X4.8622Y-3.57
X4.8622Y-4.32
X4.8622Y-5.07
X4.9Y-3.29
X4.9Y-3.32
X4.9Y-4.04
X4.9Y-4.07
X4.9Y-4.79
X4.9Y-4.82
X4.9Y-5.54
X4.9Y-5.57
X4.93Y-3.9224
X4.93Y-4.6724
X4.93Y-5.4224
X4.94Y-3.1724
X4.995Y-3.785
X5.0079Y-4.1
X5.245Y-3.785
X5.3Y-3.9776
X5.3Y-5.4777
X5.315Y-3.29
X5.315Y-3.32
X5.35Y-3.38
X5.385Y-3.29
X5.385Y-3.32
X5.395Y-4.6
X5.47Y-3.1
X5.58Y-3.29
X5.58Y-3.32
X5.58Y-4.04
X5.58Y-4.07
X5.58Y-4.79
X5.58Y-4.82
X5.6122Y-2.82
X5.6122Y-3.57
X5.6122Y-4.32
X5.6122Y-5.07
X5.65Y-3.29
X5.65Y-3.32
X5.65Y-4.04
X5.65Y-4.07
X5.65Y-4.79
X5.65Y-4.82
X5.68Y-3.9224
X5.68Y-5.4224
X5.69Y-3.1724
X5.69Y-4.6724
X5.715Y-3.42
X5.815Y-4.29
X6.05Y-3.9776
X6.05Y-5.4776
X6.33Y-3.29
X6.33Y-3.32
X6.33Y-4.04
X6.33Y-4.07
X6.33Y-4.79
X6.33Y-4.82
X6.3622Y-2.82
X6.3622Y-3.57
X6.3622Y-4.32
X6.3622Y-5.07
X6.4Y-3.29
X6.4Y-3.32
X6.4Y-4.04
X6.4Y-4.07
X6.4Y-4.79
X6.4Y-4.82
X6.43Y-3.9224
X6.43Y-5.4224
X6.44Y-3.1724
X6.44Y-4.6724
X6.465Y-3.42
X6.58Y-4.29
X6.8Y-3.9776
X6.8Y-5.4776
X7.075Y-4.04
X7.075Y-4.07
X7.075Y-4.79
X7.075Y-4.82
X7.1122Y-2.82
X7.1122Y-3.57
X7.1122Y-4.32
X7.1122Y-5.07
X7.15Y-3.29
X7.15Y-3.32
X7.15Y-4.04
X7.15Y-4.07
X7.15Y-4.79
X7.15Y-4.82
X7.18Y-3.9224
X7.18Y-5.4224
X7.19Y-3.1724
X7.19Y-4.6724
X7.215Y-3.42
X7.55Y-3.9776
X7.55Y-5.4777
X7.6Y-3.29
X7.6Y-3.32
X7.6Y-4.04
X7.6Y-4.07
X7.6Y-4.79
X7.6Y-4.82
X7.6Y-5.54
X7.6Y-5.57
T2
X4.0096Y-2.659
X4.0096Y-2.759
X4.0096Y-2.859
X4.0096Y-2.959
X4.0096Y-3.059
X4.0096Y-3.159
X4.0096Y-3.259
X4.0096Y-3.359
X4.0096Y-3.459
X4.0096Y-3.559
X4.0096Y-3.659
X4.0096Y-3.759
X4.0096Y-3.859
X4.0096Y-3.959
X4.0096Y-4.059
X4.0096Y-4.159
X4.0096Y-4.259
X4.0096Y-4.359
X4.0096Y-4.459
X4.0096Y-4.559
X4.2016Y-4.9646
X4.2016Y-5.5354
X4.2296Y-4.711
X4.3Y-5.5354
X4.3296Y-4.711
X4.3984Y-4.9646
X4.3984Y-5.5354
X4.4296Y-4.711
X4.5296Y-4.711
X4.7096Y-2.659
X4.7096Y-2.759
X4.7096Y-2.859
X4.7096Y-2.959
X4.7096Y-3.059
X4.7096Y-3.159
X4.7096Y-3.259
X4.7096Y-3.359
X4.7096Y-3.459
X4.7096Y-3.559
X4.7096Y-3.659
X4.7096Y-3.759
X4.7096Y-3.859
X4.7096Y-3.959
X4.7096Y-4.059
X4.7096Y-4.159
X4.7096Y-4.259
X4.7096Y-4.359
X4.7096Y-4.459
X4.7096Y-4.559
T4
X4.9682Y-2.9021
X4.9682Y-3.6521
X4.9682Y-4.4021
X4.9682Y-5.1523
X5.2182Y-2.8021
X5.2182Y-3.5521
X5.2182Y-4.3021
X5.2182Y-5.0523
X5.7182Y-2.9021
X5.7182Y-3.6521
X5.7182Y-4.4021
X5.7182Y-5.1521
X5.9682Y-2.8021
X5.9682Y-3.5521
X5.9682Y-4.3021
X5.9682Y-5.0521
X6.4682Y-2.9021
X6.4682Y-3.6521
X6.4682Y-4.4021
X6.4682Y-5.1521
X6.7182Y-2.8021
X6.7182Y-3.5521
X6.7182Y-4.3021
X6.7182Y-5.0521
X7.2182Y-2.9021
X7.2182Y-3.6521
X7.2182Y-4.4021
X7.2182Y-5.1523
X7.4682Y-2.8021
X7.4682Y-3.5521
X7.4682Y-4.3021
X7.4682Y-5.0523
T3
G00X4.0795Y-5.2657
M15
G01X4.0795Y-5.2146
M16
G05
G00X4.5205Y-5.2657
M15
G01X4.5205Y-5.2146
M16
G05
M30
