%TF.GenerationSoftware,KiCad,Pcbnew,8.0.0*%
%TF.CreationDate,2024-03-13T16:12:56+07:00*%
%TF.ProjectId,dumbpad,64756d62-7061-4642-9e6b-696361645f70,rev?*%
%TF.SameCoordinates,Original*%
%TF.FileFunction,Profile,NP*%
%FSLAX46Y46*%
G04 Gerber Fmt 4.6, Leading zero omitted, Abs format (unit mm)*
G04 Created by KiCad (PCBNEW 8.0.0) date 2024-03-13 16:12:56*
%MOMM*%
%LPD*%
G01*
G04 APERTURE LIST*
%TA.AperFunction,Profile*%
%ADD10C,0.152400*%
%TD*%
%TA.AperFunction,Profile*%
%ADD11C,0.120000*%
%TD*%
G04 APERTURE END LIST*
D10*
X100001100Y-67753600D02*
X100001100Y-144253600D01*
X100001100Y-65753600D02*
X100001100Y-67753600D01*
X197001100Y-144253600D02*
X197001100Y-65753600D01*
X197001100Y-65753600D02*
X100001100Y-65753600D01*
X100001100Y-144253600D02*
X197001100Y-144253600D01*
D11*
%TO.C,S1*%
X128201100Y-79663600D02*
X131801100Y-79663600D01*
X128201100Y-82763600D02*
X128201100Y-79663600D01*
X131801100Y-79663600D02*
X131801100Y-82763600D01*
X131801100Y-82763600D02*
X128201100Y-82763600D01*
%TO.C,S15*%
X166301100Y-136813600D02*
X169901100Y-136813600D01*
X166301100Y-139913600D02*
X166301100Y-136813600D01*
X169901100Y-136813600D02*
X169901100Y-139913600D01*
X169901100Y-139913600D02*
X166301100Y-139913600D01*
%TO.C,S8*%
X185351100Y-98713600D02*
X188951100Y-98713600D01*
X185351100Y-101813600D02*
X185351100Y-98713600D01*
X188951100Y-98713600D02*
X188951100Y-101813600D01*
X188951100Y-101813600D02*
X185351100Y-101813600D01*
%TO.C,S2*%
X147251100Y-79663600D02*
X150851100Y-79663600D01*
X147251100Y-82763600D02*
X147251100Y-79663600D01*
X150851100Y-79663600D02*
X150851100Y-82763600D01*
X150851100Y-82763600D02*
X147251100Y-82763600D01*
%TO.C,S4*%
X185351100Y-79663600D02*
X188951100Y-79663600D01*
X185351100Y-82763600D02*
X185351100Y-79663600D01*
X188951100Y-79663600D02*
X188951100Y-82763600D01*
X188951100Y-82763600D02*
X185351100Y-82763600D01*
%TO.C,S5*%
X128201100Y-98713600D02*
X131801100Y-98713600D01*
X128201100Y-101813600D02*
X128201100Y-98713600D01*
X131801100Y-98713600D02*
X131801100Y-101813600D01*
X131801100Y-101813600D02*
X128201100Y-101813600D01*
%TO.C,S14*%
X147251100Y-136813600D02*
X150851100Y-136813600D01*
X147251100Y-139913600D02*
X147251100Y-136813600D01*
X150851100Y-136813600D02*
X150851100Y-139913600D01*
X150851100Y-139913600D02*
X147251100Y-139913600D01*
%TO.C,S11*%
X166301100Y-117763600D02*
X169901100Y-117763600D01*
X166301100Y-120863600D02*
X166301100Y-117763600D01*
X169901100Y-117763600D02*
X169901100Y-120863600D01*
X169901100Y-120863600D02*
X166301100Y-120863600D01*
%TO.C,S7*%
X166301100Y-98713600D02*
X169901100Y-98713600D01*
X166301100Y-101813600D02*
X166301100Y-98713600D01*
X169901100Y-98713600D02*
X169901100Y-101813600D01*
X169901100Y-101813600D02*
X166301100Y-101813600D01*
%TO.C,S6*%
X147251100Y-98713600D02*
X150851100Y-98713600D01*
X147251100Y-101813600D02*
X147251100Y-98713600D01*
X150851100Y-98713600D02*
X150851100Y-101813600D01*
X150851100Y-101813600D02*
X147251100Y-101813600D01*
%TO.C,S12*%
X185351100Y-117763600D02*
X188951100Y-117763600D01*
X185351100Y-120863600D02*
X185351100Y-117763600D01*
X188951100Y-117763600D02*
X188951100Y-120863600D01*
X188951100Y-120863600D02*
X185351100Y-120863600D01*
%TO.C,S3*%
X166301100Y-79663600D02*
X169901100Y-79663600D01*
X166301100Y-82763600D02*
X166301100Y-79663600D01*
X169901100Y-79663600D02*
X169901100Y-82763600D01*
X169901100Y-82763600D02*
X166301100Y-82763600D01*
%TO.C,S13*%
X128201100Y-136817200D02*
X131801100Y-136817200D01*
X128201100Y-139917200D02*
X128201100Y-136817200D01*
X131801100Y-136817200D02*
X131801100Y-139917200D01*
X131801100Y-139917200D02*
X128201100Y-139917200D01*
%TO.C,S9*%
X128201100Y-117763600D02*
X131801100Y-117763600D01*
X128201100Y-120863600D02*
X128201100Y-117763600D01*
X131801100Y-117763600D02*
X131801100Y-120863600D01*
X131801100Y-120863600D02*
X128201100Y-120863600D01*
%TO.C,S16*%
X185351100Y-136817200D02*
X188951100Y-136817200D01*
X185351100Y-139917200D02*
X185351100Y-136817200D01*
X188951100Y-136817200D02*
X188951100Y-139917200D01*
X188951100Y-139917200D02*
X185351100Y-139917200D01*
%TO.C,S10*%
X147251100Y-117763600D02*
X150851100Y-117763600D01*
X147251100Y-120863600D02*
X147251100Y-117763600D01*
X150851100Y-117763600D02*
X150851100Y-120863600D01*
X150851100Y-120863600D02*
X147251100Y-120863600D01*
%TD*%
M02*
