%TF.GenerationSoftware,KiCad,Pcbnew,8.0.0*%
%TF.CreationDate,2024-03-13T16:12:56+07:00*%
%TF.ProjectId,dumbpad,64756d62-7061-4642-9e6b-696361645f70,rev?*%
%TF.SameCoordinates,Original*%
%TF.FileFunction,Soldermask,Top*%
%TF.FilePolarity,Negative*%
%FSLAX46Y46*%
G04 Gerber Fmt 4.6, Leading zero omitted, Abs format (unit mm)*
G04 Created by KiCad (PCBNEW 8.0.0) date 2024-03-13 16:12:56*
%MOMM*%
%LPD*%
G01*
G04 APERTURE LIST*
G04 Aperture macros list*
%AMRoundRect*
0 Rectangle with rounded corners*
0 $1 Rounding radius*
0 $2 $3 $4 $5 $6 $7 $8 $9 X,Y pos of 4 corners*
0 Add a 4 corners polygon primitive as box body*
4,1,4,$2,$3,$4,$5,$6,$7,$8,$9,$2,$3,0*
0 Add four circle primitives for the rounded corners*
1,1,$1+$1,$2,$3*
1,1,$1+$1,$4,$5*
1,1,$1+$1,$6,$7*
1,1,$1+$1,$8,$9*
0 Add four rect primitives between the rounded corners*
20,1,$1+$1,$2,$3,$4,$5,0*
20,1,$1+$1,$4,$5,$6,$7,0*
20,1,$1+$1,$6,$7,$8,$9,0*
20,1,$1+$1,$8,$9,$2,$3,0*%
G04 Aperture macros list end*
%ADD10O,2.400000X1.800000*%
%ADD11RoundRect,0.200000X0.800000X-0.200000X0.800000X0.200000X-0.800000X0.200000X-0.800000X-0.200000X0*%
%ADD12C,2.200000*%
%ADD13RoundRect,0.218750X-0.218750X-0.256250X0.218750X-0.256250X0.218750X0.256250X-0.218750X0.256250X0*%
%ADD14R,2.000000X2.000000*%
%ADD15C,2.000000*%
%ADD16R,2.000000X3.200000*%
%ADD17R,1.700000X1.700000*%
%ADD18O,1.700000X1.700000*%
%ADD19C,1.700000*%
%ADD20C,4.100000*%
%ADD21C,3.600000*%
G04 APERTURE END LIST*
D10*
%TO.C,M1*%
X101844000Y-67538500D03*
X101844000Y-70078500D03*
X101844000Y-72618500D03*
X101844000Y-75158500D03*
X101844000Y-77698500D03*
X101844000Y-80238500D03*
X101844000Y-82778500D03*
X101844000Y-85318500D03*
X101844000Y-87858500D03*
X101844000Y-90398500D03*
X101844000Y-92938500D03*
X101844000Y-95478500D03*
X101844000Y-98018500D03*
X101844000Y-100558500D03*
X101844000Y-103098500D03*
X101844000Y-105638500D03*
X101844000Y-108178500D03*
X101844000Y-110718500D03*
X101844000Y-113258500D03*
X101844000Y-115798500D03*
X119624000Y-115798500D03*
X119624000Y-113258500D03*
X119624000Y-110718500D03*
X119624000Y-108178500D03*
X119624000Y-105638500D03*
X119624000Y-103098500D03*
X119624000Y-100558500D03*
X119624000Y-98018500D03*
X119624000Y-95478500D03*
X119624000Y-92938500D03*
X119624000Y-90398500D03*
X119624000Y-87858500D03*
X119624000Y-85318500D03*
X119624000Y-82778500D03*
X119624000Y-80238500D03*
X119624000Y-77698500D03*
X119624000Y-75158500D03*
X119624000Y-72618500D03*
X119624000Y-70078500D03*
X119624000Y-67538500D03*
%TD*%
D11*
%TO.C,S17*%
X119634000Y-123766000D03*
X119634000Y-119566000D03*
%TD*%
D12*
%TO.C,H3*%
X138576100Y-124828600D03*
%TD*%
D13*
%TO.C,DL2*%
X106375000Y-123190000D03*
X107950000Y-123190000D03*
%TD*%
D12*
%TO.C,H6*%
X119126000Y-139192000D03*
%TD*%
%TO.C,H4*%
X178576100Y-124828600D03*
%TD*%
%TO.C,H5*%
X102870000Y-120904000D03*
%TD*%
D14*
%TO.C,RE_3_1*%
X106720000Y-140600000D03*
D15*
X111720000Y-140600000D03*
X109220000Y-140600000D03*
D16*
X103620000Y-133100000D03*
X114820000Y-133100000D03*
D15*
X111720000Y-126100000D03*
X106720000Y-126100000D03*
%TD*%
D12*
%TO.C,H1*%
X138576100Y-84828600D03*
%TD*%
%TO.C,H2*%
X178576100Y-84828600D03*
%TD*%
D17*
%TO.C,M2*%
X115052000Y-119659000D03*
D18*
X112512000Y-119659000D03*
X109972000Y-119659000D03*
X107432000Y-119659000D03*
%TD*%
D13*
%TO.C,DL1*%
X110439000Y-123190000D03*
X112014000Y-123190000D03*
%TD*%
%TO.C,DL3*%
X114503000Y-123190000D03*
X116078000Y-123190000D03*
%TD*%
D19*
%TO.C,S1*%
X135081100Y-76253600D03*
D20*
X130001100Y-76253600D03*
D19*
X124921100Y-76253600D03*
D21*
X132541100Y-71173600D03*
X126191100Y-73713600D03*
%TD*%
D19*
%TO.C,S15*%
X173181100Y-133403600D03*
D20*
X168101100Y-133403600D03*
D19*
X163021100Y-133403600D03*
D21*
X170641100Y-128323600D03*
X164291100Y-130863600D03*
%TD*%
D19*
%TO.C,S8*%
X192231100Y-95303600D03*
D20*
X187151100Y-95303600D03*
D19*
X182071100Y-95303600D03*
D21*
X189691100Y-90223600D03*
X183341100Y-92763600D03*
%TD*%
D19*
%TO.C,S2*%
X154131100Y-76253600D03*
D20*
X149051100Y-76253600D03*
D19*
X143971100Y-76253600D03*
D21*
X151591100Y-71173600D03*
X145241100Y-73713600D03*
%TD*%
D19*
%TO.C,S4*%
X192231100Y-76253600D03*
D20*
X187151100Y-76253600D03*
D19*
X182071100Y-76253600D03*
D21*
X189691100Y-71173600D03*
X183341100Y-73713600D03*
%TD*%
D19*
%TO.C,S5*%
X135081100Y-95303600D03*
D20*
X130001100Y-95303600D03*
D19*
X124921100Y-95303600D03*
D21*
X132541100Y-90223600D03*
X126191100Y-92763600D03*
%TD*%
D19*
%TO.C,S14*%
X154131100Y-133403600D03*
D20*
X149051100Y-133403600D03*
D19*
X143971100Y-133403600D03*
D21*
X151591100Y-128323600D03*
X145241100Y-130863600D03*
%TD*%
D19*
%TO.C,S11*%
X173181100Y-114353600D03*
D20*
X168101100Y-114353600D03*
D19*
X163021100Y-114353600D03*
D21*
X170641100Y-109273600D03*
X164291100Y-111813600D03*
%TD*%
D19*
%TO.C,S7*%
X173181100Y-95303600D03*
D20*
X168101100Y-95303600D03*
D19*
X163021100Y-95303600D03*
D21*
X170641100Y-90223600D03*
X164291100Y-92763600D03*
%TD*%
D19*
%TO.C,S6*%
X154131100Y-95303600D03*
D20*
X149051100Y-95303600D03*
D19*
X143971100Y-95303600D03*
D21*
X151591100Y-90223600D03*
X145241100Y-92763600D03*
%TD*%
D19*
%TO.C,S12*%
X192231100Y-114353600D03*
D20*
X187151100Y-114353600D03*
D19*
X182071100Y-114353600D03*
D21*
X189691100Y-109273600D03*
X183341100Y-111813600D03*
%TD*%
D19*
%TO.C,S3*%
X173181100Y-76253600D03*
D20*
X168101100Y-76253600D03*
D19*
X163021100Y-76253600D03*
D21*
X170641100Y-71173600D03*
X164291100Y-73713600D03*
%TD*%
D19*
%TO.C,S13*%
X135081100Y-133407200D03*
D20*
X130001100Y-133407200D03*
D19*
X124921100Y-133407200D03*
D21*
X132541100Y-128327200D03*
X126191100Y-130867200D03*
%TD*%
D19*
%TO.C,S9*%
X135081100Y-114353600D03*
D20*
X130001100Y-114353600D03*
D19*
X124921100Y-114353600D03*
D21*
X132541100Y-109273600D03*
X126191100Y-111813600D03*
%TD*%
D19*
%TO.C,S16*%
X192231100Y-133407200D03*
D20*
X187151100Y-133407200D03*
D19*
X182071100Y-133407200D03*
D21*
X189691100Y-128327200D03*
X183341100Y-130867200D03*
%TD*%
D19*
%TO.C,S10*%
X154131100Y-114353600D03*
D20*
X149051100Y-114353600D03*
D19*
X143971100Y-114353600D03*
D21*
X151591100Y-109273600D03*
X145241100Y-111813600D03*
%TD*%
M02*
